<svg id="visual" viewBox="0 0 450 900" width="450" height="900" xmlns="http://www.w3.org/2000/svg" xmlns:xlink="http://www.w3.org/1999/xlink" version="1.1"><rect x="0" y="0" width="450" height="900" fill="#ffffff"></rect><defs><linearGradient id="grad1_0" x1="0%" y1="0%" x2="100%" y2="100%"><stop offset="30%" stop-color="#ffffff" stop-opacity="1"></stop><stop offset="70%" stop-color="#ffffff" stop-opacity="1"></stop></linearGradient></defs><defs><linearGradient id="grad2_0" x1="0%" y1="0%" x2="100%" y2="100%"><stop offset="30%" stop-color="#ffffff" stop-opacity="1"></stop><stop offset="70%" stop-color="#ffffff" stop-opacity="1"></stop></linearGradient></defs><g transform="translate(450, 0)"><path d="M0 360C-41.5 309.4 -83 258.7 -130 225.2C-177 191.6 -229.4 175.2 -243.4 140.5C-257.3 105.8 -232.6 52.9 -208 0L0 0Z" fill="#F1EDEF"></path></g><g transform="translate(0, 900)"><path d="M0 -360C71.2 -353 142.5 -346.1 176 -304.8C209.5 -263.6 205.4 -188 227.8 -131.5C250.1 -75 299.1 -37.5 348 0L0 0Z" fill="#F1EDEF"></path></g></svg>