<svg id="visual" viewBox="0 0 540 960" width="540" height="960" xmlns="http://www.w3.org/2000/svg" xmlns:xlink="http://www.w3.org/1999/xlink" version="1.1"><rect x="0" y="0" width="540" height="960" fill="#FFFFFF"></rect><defs><linearGradient id="grad1_0" x1="0%" y1="0%" x2="100%" y2="100%"><stop offset="30%" stop-color="#ffffff" stop-opacity="1"></stop><stop offset="70%" stop-color="#ffffff" stop-opacity="1"></stop></linearGradient></defs><defs><linearGradient id="grad2_0" x1="0%" y1="0%" x2="100%" y2="100%"><stop offset="30%" stop-color="#ffffff" stop-opacity="1"></stop><stop offset="70%" stop-color="#ffffff" stop-opacity="1"></stop></linearGradient></defs><g transform="translate(540, 0)"><path d="M0 324C-57.5 316 -114.9 308 -162 280.6C-209.1 253.2 -245.8 206.5 -271.1 156.5C-296.3 106.5 -310.2 53.3 -324 0L0 0Z" fill="#F1EDEF"></path></g><g transform="translate(0, 960)"><path d="M0 -324C72 -324.4 144 -324.8 162 -280.6C180 -236.4 144 -147.7 161.9 -93.5C179.9 -39.3 252 -19.7 324 0L0 0Z" fill="#F1EDEF"></path></g></svg>